PathFileType	4	(x/y/z)	S10_SL_Cal_T01
DataRate	CameraRate	NumFrames	NumMarkers	Units	OrigDataRate	OrigDataStartFrame	OrigNumFrames
240	240	4	51	mm	240	1201	2400
Frame#	Time	Sternum			R.Acromium			L.Acromium			Top.Head			R.ASIS			L.ASIS			R.PSIS			L.PSIS			R.Great.Tro			L.Great.Tro			R.Iliac.Crest			L.Iliac.Crest			V.Sacral			R.Thigh.Upper.Post			R.Thigh.Lower.Ant			R.Thigh.Lower.Post			R.Thigh.Upper.Ant			R.Knee.Lat			R.Knee.Med			R.Shank.Upper.Post			R.Shank.Lower.Ant			R.Shank.Lower.Post			R.Shank.Upper.Ant			R.Ankle.Lat			R.Ankle.Med			R.Heel.Upper			R.Heel.Med			R.Heel.Lat			R.Toe.Lat			R.Toe.Med			R.Toe.Tip			L.Thigh.Upper.Post			L.Thigh.Lower.Ant			L.Thigh.Lower.Post			L.Thigh.Upper.Ant			L.Knee.Lat			L.Knee.Med			L.Shank.Upper.Post			L.Shank.Lower.Ant			L.Shank.Lower.Post			L.Shank.Upper.Ant			L.Ankle.Lat			L.Ankle.Med			L.Heel.Upper			L.Heel.Med			L.Heel.Lat			L.Toe.Lat			L.Toe.Med			L.Toe.Tip			Cervical.Spine			Back			
		X1	Y1	Z1	X2	Y2	Z2	X3	Y3	Z3	X4	Y4	Z4	X5	Y5	Z5	X6	Y6	Z6	X7	Y7	Z7	X8	Y8	Z8	X9	Y9	Z9	X10	Y10	Z10	X11	Y11	Z11	X12	Y12	Z12	X13	Y13	Z13	X14	Y14	Z14	X15	Y15	Z15	X16	Y16	Z16	X17	Y17	Z17	X18	Y18	Z18	X19	Y19	Z19	X20	Y20	Z20	X21	Y21	Z21	X22	Y22	Z22	X23	Y23	Z23	X24	Y24	Z24	X25	Y25	Z25	X26	Y26	Z26	X27	Y27	Z27	X28	Y28	Z28	X29	Y29	Z29	X30	Y30	Z30	X31	Y31	Z31	X32	Y32	Z32	X33	Y33	Z33	X34	Y34	Z34	X35	Y35	Z35	X36	Y36	Z36	X37	Y37	Z37	X38	Y38	Z38	X39	Y39	Z39	X40	Y40	Z40	X41	Y41	Z41	X42	Y42	Z42	X43	Y43	Z43	X44	Y44	Z44	X45	Y45	Z45	X46	Y46	Z46	X47	Y47	Z47	X48	Y48	Z48	X49	Y49	Z49	X50	Y50	Z50	X51	Y51	Z51	

1201	5	765.12	1307	326.67	615.88	1448.3	476.88	621.53	1482.3	172.07	647.79	1774.5	347.93	719.07	1008.1	434.44	723.62	1027.7	199.2	524.18	1056.3	346.01	532.15	1062.5	264.55	637.06	937.99	503.53	655.09	963.46	138.48	628.96	1098.9	480.7	659.63	1110.6	170.4	500.91	1029.8	307.75	621.42	728.05	507.83	662.36	640.85	470.26	599.56	641.22	500.41	686.36	729.19	472.81	577.84	517.3	463.65	567.93	515.15	336.14	510.22	295.73	475.14	581.39	237.53	466.08	513.78	221.95	472.37	580.82	314.16	468.56	542.87	108.21	455.98	566.37	113.21	380.84	493.96	63.966	406.15	507.75	37.052	380.41	494.5	39.884	440.7	659.64	39.321	508.63	701.99	44.722	404.39	754.7	61.098	454.31	569.84	709.63	117.55	626.16	613.91	132.52	550.01	616.14	128.06	647.64	700.35	124.76	572.34	522.98	130.3	562.85	505.59	257.53	514.1	308.2	115.72	587.14	225.72	130.15	523.04	231.13	122.85	578.45	302.12	122.82	564.4	103.66	135.35	578.97	111.2	220.35	500.22	76.638	176.07	511.71	45.732	209.72	508.17	46.31	145.3	684.56	41.428	109.07	711.35	47.487	215.54	766.88	60.483	169.63	549.18	1506.5	333.67	489.14	1290.4	314.25
1202	5.0042	765.11	1307	326.67	615.87	1448.3	476.88	621.53	1482.3	172.07	647.78	1774.5	347.93	719.08	1008.1	434.44	723.62	1027.7	199.2	524.18	1056.3	346.01	532.16	1062.5	264.56	637.07	937.98	503.53	655.09	963.46	138.48	628.97	1098.9	480.71	659.63	1110.6	170.4	500.92	1029.8	307.75	621.43	728.05	507.84	662.37	640.84	470.26	599.57	641.22	500.41	686.37	729.18	472.81	577.84	517.3	463.65	567.93	515.15	336.15	510.22	295.73	475.14	581.39	237.53	466.08	513.78	221.95	472.37	580.82	314.16	468.57	542.87	108.21	455.99	566.37	113.22	380.84	493.96	63.966	406.15	507.75	37.053	380.41	494.5	39.884	440.7	659.64	39.321	508.63	701.99	44.721	404.39	754.7	61.097	454.31	569.84	709.63	117.55	626.16	613.91	132.52	550.01	616.15	128.06	647.64	700.35	124.76	572.34	522.98	130.3	562.85	505.59	257.53	514.1	308.2	115.72	587.14	225.73	130.15	523.04	231.13	122.85	578.45	302.12	122.82	564.4	103.66	135.35	578.96	111.21	220.37	500.22	76.638	176.07	511.71	45.733	209.72	508.17	46.311	145.3	684.56	41.428	109.07	711.35	47.487	215.54	766.88	60.482	169.63	549.18	1506.5	333.67	489.14	1290.4	314.25
1203	5.0083	765.1	1307	326.68	615.86	1448.2	476.88	621.52	1482.2	172.06	647.78	1774.5	347.93	719.09	1008.1	434.44	723.63	1027.7	199.19	524.19	1056.3	346.01	532.17	1062.5	264.56	637.09	937.98	503.53	655.09	963.46	138.48	628.98	1098.9	480.71	659.64	1110.6	170.39	500.92	1029.8	307.76	621.43	728.05	507.84	662.37	640.84	470.26	599.57	641.22	500.42	686.38	729.18	472.81	577.84	517.3	463.65	567.93	515.15	336.15	510.22	295.73	475.14	581.38	237.53	466.09	513.79	221.95	472.38	580.82	314.16	468.57	542.87	108.21	455.99	566.37	113.22	380.84	493.96	63.966	406.15	507.75	37.053	380.41	494.5	39.884	440.7	659.64	39.32	508.63	701.99	44.721	404.39	754.7	61.096	454.31	569.84	709.63	117.55	626.16	613.91	132.52	550.01	616.15	128.06	647.64	700.35	124.76	572.34	522.98	130.3	562.85	505.59	257.53	514.1	308.2	115.72	587.14	225.73	130.15	523.04	231.13	122.85	578.45	302.12	122.82	564.4	103.66	135.35	578.96	111.21	220.38	500.22	76.639	176.07	511.71	45.733	209.72	508.17	46.311	145.3	684.56	41.428	109.07	711.35	47.486	215.54	766.88	60.481	169.63	549.18	1506.5	333.67	489.14	1290.4	314.25
1204	5.0125	765.09	1307	326.68	615.85	1448.2	476.89	621.52	1482.2	172.06	647.77	1774.5	347.93	719.11	1008.1	434.44	723.63	1027.7	199.19	524.2	1056.3	346.02	532.17	1062.5	264.56	637.1	937.98	503.53	655.1	963.46	138.48	628.99	1098.9	480.71	659.64	1110.6	170.39	500.93	1029.8	307.76	621.44	728.04	507.84	662.38	640.84	470.26	599.58	641.22	500.42	686.39	729.18	472.81	577.84	517.29	463.65	567.93	515.15	336.15	510.22	295.74	475.14	581.38	237.53	466.09	513.79	221.95	472.38	580.82	314.16	468.57	542.87	108.21	455.99	566.38	113.22	380.84	493.96	63.966	406.15	507.75	37.053	380.41	494.5	39.885	440.7	659.64	39.319	508.63	701.99	44.721	404.39	754.7	61.095	454.31	569.84	709.64	117.55	626.17	613.91	132.52	550.01	616.15	128.06	647.65	700.35	124.76	572.35	522.98	130.3	562.85	505.59	257.53	514.1	308.2	115.72	587.14	225.73	130.15	523.04	231.13	122.86	578.45	302.12	122.82	564.4	103.67	135.35	578.96	111.22	220.39	500.22	76.639	176.07	511.71	45.734	209.72	508.17	46.312	145.3	684.56	41.428	109.07	711.35	47.486	215.55	766.88	60.481	169.63	549.17	1506.5	333.68	489.15	1290.4	314.25
